<?xml version="1.0" encoding="UTF-8" standalone="no"?>
<svg
   xmlns:dc="http://purl.org/dc/elements/1.1/"
   xmlns:cc="http://creativecommons.org/ns#"
   xmlns:rdf="http://www.w3.org/1999/02/22-rdf-syntax-ns#"
   xmlns:svg="http://www.w3.org/2000/svg"
   xmlns="http://www.w3.org/2000/svg"
   xmlns:sodipodi="http://sodipodi.sourceforge.net/DTD/sodipodi-0.dtd"
   xmlns:inkscape="http://www.inkscape.org/namespaces/inkscape"
   id="svg6"
   version="1.1"
   viewBox="0 0 512 512"
   style="height: 512px; width: 512px;"
   sodipodi:docname="heart-temp.svg"
   inkscape:version="0.92.1 r15371">
  <sodipodi:namedview
     pagecolor="#ffffff"
     bordercolor="#666666"
     borderopacity="1"
     objecttolerance="10"
     gridtolerance="10"
     guidetolerance="10"
     inkscape:pageopacity="0"
     inkscape:pageshadow="2"
     inkscape:window-width="1920"
     inkscape:window-height="1017"
     id="namedview4504"
     showgrid="false"
     inkscape:zoom="1.6015625"
     inkscape:cx="256"
     inkscape:cy="256"
     inkscape:window-x="1912"
     inkscape:window-y="-8"
     inkscape:window-maximized="1"
     inkscape:current-layer="svg6" />
  <metadata
     id="metadata12">
    <rdf:RDF>
      <cc:Work
         rdf:about="">
        <dc:format>image/svg+xml</dc:format>
        <dc:type
           rdf:resource="http://purl.org/dc/dcmitype/StillImage" />
        <dc:title />
      </cc:Work>
    </rdf:RDF>
  </metadata>
  <defs
     id="defs10" />
  <path
     id="path2"
     d="M 372.48047,31.214844 C 294.83047,31.214844 256,96.945312 256,96.945312 c 0,0 -38.83047,-65.720703 -116.48047,-65.720703 -37.14,0 -107.76953,33.72086 -107.76953,125.130861 0,161.24 224.25,324.42969 224.25,324.42969 0,0 224.25,-163.18969 224.25,-324.42969 0,-91.420001 -70.62953,-125.130626 -107.76953,-125.140626 z M 158.23633,109.36523 H 256 353.76367 v 7.39649 7.39648 h -7.36914 -7.36719 l -0.31836,2.08985 c -0.17537,1.14968 -0.48776,4.40634 -0.69531,7.23633 -0.98759,13.4655 -5.44651,29.42588 -11.55664,41.37109 -6.56588,12.83622 -12.5551,19.93743 -34.82226,41.27734 -7.00985,6.71794 -8.75236,8.7766 -10.59571,12.52735 -1.92603,3.91897 -2.20498,5.10281 -2.19336,9.32617 0.0237,8.60909 3.29956,13.49243 18.2793,27.25 15.30571,14.05695 22.89536,23.31705 29.15625,35.57422 6.35357,12.43858 10.76709,28.03039 11.71484,41.38476 0.21339,3.00685 0.53191,6.40696 0.70899,7.55664 l 0.32226,2.08985 h 7.36719 7.36914 v 7.39648 7.39649 H 256 158.23633 v -7.39649 -7.39648 h 7.32812 c 8.29338,0 8.10938,0.12117 8.10938,-5.27539 0,-4.60075 1.73658,-15.83098 3.58203,-23.16016 2.20763,-8.76757 4.38332,-14.56636 8.39258,-22.375 6.62555,-12.90423 12.73754,-20.15563 34.69922,-41.16406 7.03099,-6.72583 8.76423,-8.77221 10.61132,-12.52735 1.92835,-3.92039 2.20695,-5.10129 2.19532,-9.32617 -0.0242,-8.7991 -3.07729,-13.3197 -18.75586,-27.77734 -18.38577,-16.95403 -27.47187,-29.4442 -33.69141,-46.3125 -3.64624,-9.88915 -7.0332,-26.5012 -7.0332,-34.49024 0,-5.39656 0.184,-5.27539 -8.10938,-5.27539 h -7.32812 v -7.39648 z"
     style="fill:#000000;fill-opacity:1"
     inkscape:connector-curvature="0"
     sodipodi:nodetypes="ccsscsccccccccccssccsccccccccccccsssscccssssccc" />
  <g
     transform="matrix(0.50730117,0,0,0.50730117,126.1309,112.1309)"
     id="g4495"
     style="fill:#00ff00;stroke-width:1.97121561" />
  <g
     transform="matrix(0.50730117,0,0,0.50730117,126.1309,112.1309)"
     id="g4497"
     style="fill:#00ff00;stroke-width:1.97121561" />
  <g
     transform="matrix(0.50730117,0,0,0.50730117,126.1309,112.1309)"
     id="g4499"
     style="fill:#00ff00;stroke-width:1.97121561" />
  <g
     transform="matrix(0.50730117,0,0,0.50730117,126.1309,112.1309)"
     id="g4501"
     style="fill:#00ff00;stroke-width:1.97121561" />
  <g
     transform="matrix(0.50730117,0,0,0.50730117,126.1309,112.1309)"
     id="g4503"
     style="fill:#00ff00;stroke-width:1.97121561" />
  <g
     transform="matrix(0.50730117,0,0,0.50730117,126.1309,112.1309)"
     id="g4505"
     style="fill:#00ff00;stroke-width:1.97121561" />
  <g
     transform="matrix(0.50730117,0,0,0.50730117,126.1309,112.1309)"
     id="g4507"
     style="fill:#00ff00;stroke-width:1.97121561" />
  <g
     transform="matrix(0.50730117,0,0,0.50730117,126.1309,112.1309)"
     id="g4509"
     style="fill:#00ff00;stroke-width:1.97121561" />
  <g
     transform="matrix(0.50730117,0,0,0.50730117,126.1309,112.1309)"
     id="g4511"
     style="fill:#00ff00;stroke-width:1.97121561" />
  <g
     transform="matrix(0.50730117,0,0,0.50730117,126.1309,112.1309)"
     id="g4513"
     style="fill:#00ff00;stroke-width:1.97121561" />
  <g
     transform="matrix(0.50730117,0,0,0.50730117,126.1309,112.1309)"
     id="g4515"
     style="fill:#00ff00;stroke-width:1.97121561" />
  <g
     transform="matrix(0.50730117,0,0,0.50730117,126.1309,112.1309)"
     id="g4517"
     style="fill:#00ff00;stroke-width:1.97121561" />
  <g
     transform="matrix(0.50730117,0,0,0.50730117,126.1309,112.1309)"
     id="g4519"
     style="fill:#00ff00;stroke-width:1.97121561" />
  <g
     transform="matrix(0.50730117,0,0,0.50730117,126.1309,112.1309)"
     id="g4521"
     style="fill:#00ff00;stroke-width:1.97121561" />
  <g
     transform="matrix(0.50730117,0,0,0.50730117,126.1309,112.1309)"
     id="g4523"
     style="fill:#00ff00;stroke-width:1.97121561" />
</svg>
